<svg width="244" height="49" viewBox="0 0 244 49" fill="none" xmlns="http://www.w3.org/2000/svg">
<path d="M24.0192 44.0352C12.9647 44.0352 4.0032 35.0736 4.0032 24.0192C4.0032 12.9648 12.9647 4.00321 24.0192 4.00321" stroke="#FFDE42" stroke-width="8.00639" stroke-miterlimit="10" stroke-linecap="round" stroke-linejoin="round"/>
<path d="M78.4626 4.0032C89.5171 4.0032 98.4786 12.9647 98.4786 24.0192C98.4786 35.0736 89.5171 44.0352 78.4626 44.0352" stroke="#FFDE42" stroke-width="8.00639" stroke-miterlimit="10" stroke-linecap="round" stroke-linejoin="round"/>
<path d="M24.0192 4.0032C44.0351 4.0032 58.4466 44.0352 78.4626 44.0352" stroke="#FFDE42" stroke-width="8.00639" stroke-miterlimit="10" stroke-linecap="round" stroke-linejoin="round"/>
<path d="M78.4626 4.0032C58.4466 4.0032 44.0351 44.0352 24.0192 44.0352" stroke="#FFDE42" stroke-width="8.00639" stroke-miterlimit="10" stroke-linecap="round" stroke-linejoin="round"/>
<path d="M117.554 18.5192V13.493L111.625 2.41602H115.822L119.262 10.3212H119.408L122.824 2.41602H126.972L121.092 13.4686V18.5192H117.554ZM132.882 18.8608C131.597 18.8608 130.467 18.6086 129.491 18.1044C128.515 17.5839 127.75 16.8275 127.197 15.8353C126.644 14.8268 126.368 13.5744 126.368 12.0779C126.368 10.5815 126.644 9.33713 127.197 8.34491C127.767 7.3527 128.539 6.6126 129.515 6.12463C130.507 5.62039 131.63 5.36827 132.882 5.36827C134.167 5.36827 135.298 5.62039 136.274 6.12463C137.266 6.62887 138.038 7.38523 138.592 8.39371C139.161 9.38593 139.445 10.6303 139.445 12.1267C139.445 13.6394 139.153 14.9 138.567 15.9085C137.998 16.9007 137.217 17.6408 136.225 18.1288C135.249 18.6168 134.135 18.8608 132.882 18.8608ZM133.004 16.2501C133.639 16.2501 134.167 16.1037 134.59 15.8109C135.029 15.5181 135.355 15.079 135.566 14.4934C135.794 13.8916 135.908 13.1677 135.908 12.3219C135.908 11.4273 135.786 10.6709 135.542 10.0528C135.314 9.41846 134.972 8.93862 134.517 8.6133C134.061 8.27172 133.484 8.10093 132.785 8.10093C132.183 8.10093 131.662 8.24732 131.223 8.5401C130.784 8.81662 130.45 9.2558 130.223 9.85764C129.995 10.4432 129.881 11.167 129.881 12.0291C129.881 13.4117 130.158 14.4609 130.711 15.1766C131.264 15.8923 132.028 16.2501 133.004 16.2501ZM147.018 22.9842C145.619 22.9842 144.464 22.8703 143.554 22.6426C142.659 22.4311 142 22.1139 141.577 21.691C141.154 21.2681 140.943 20.7395 140.943 20.1051C140.943 19.3569 141.236 18.7469 141.821 18.2752C142.423 17.8035 143.301 17.5188 144.456 17.4212V16.9333C143.578 16.9333 142.903 16.8438 142.431 16.6649C141.96 16.4697 141.724 16.1362 141.724 15.6645C141.724 15.2091 141.951 14.8024 142.407 14.4446C142.879 14.0868 143.651 13.8021 144.725 13.5906V13.1027C143.716 13.0376 142.927 12.7123 142.358 12.1267C141.789 11.5411 141.504 10.7848 141.504 9.85764C141.504 9.04434 141.732 8.32052 142.187 7.68615C142.643 7.03552 143.318 6.52314 144.212 6.14903C145.123 5.75865 146.237 5.56346 147.555 5.56346H154.045V8.24732L150.019 7.68615V8.24732C151.06 8.39371 151.809 8.65396 152.264 9.02808C152.736 9.40219 152.972 9.9227 152.972 10.5896C152.972 11.2565 152.752 11.8421 152.313 12.3463C151.874 12.8505 151.247 13.2491 150.434 13.5418C149.637 13.8184 148.677 13.9566 147.555 13.9566C147.344 13.9566 147.116 13.9485 146.872 13.9322C146.628 13.916 146.221 13.8753 145.652 13.8102C145.343 14.038 145.099 14.2413 144.92 14.4202C144.757 14.5829 144.676 14.7374 144.676 14.8838C144.676 14.9976 144.733 15.0952 144.847 15.1766C144.977 15.2579 145.14 15.3148 145.335 15.3474C145.546 15.3799 145.758 15.3961 145.969 15.3961H149.629C149.954 15.3961 150.377 15.4205 150.898 15.4693C151.418 15.5019 151.939 15.6239 152.459 15.8353C152.98 16.0468 153.419 16.3884 153.777 16.8601C154.135 17.3155 154.313 17.9743 154.313 18.8364C154.313 19.7798 154.045 20.5605 153.508 21.1787C152.988 21.7968 152.183 22.2522 151.093 22.545C150.019 22.8378 148.661 22.9842 147.018 22.9842ZM147.409 20.1783C148.401 20.1783 149.173 20.1214 149.726 20.0075C150.28 19.9099 150.67 19.7391 150.898 19.4951C151.142 19.2674 151.264 18.9746 151.264 18.6168C151.264 18.2915 151.19 18.0393 151.044 17.8604C150.914 17.6815 150.735 17.5595 150.507 17.4944C150.296 17.4131 150.076 17.3643 149.848 17.348C149.637 17.3155 149.45 17.2993 149.287 17.2993H146.213C145.53 17.3643 145.034 17.5514 144.725 17.8604C144.432 18.1532 144.286 18.4948 144.286 18.8852C144.286 19.243 144.399 19.5114 144.627 19.6903C144.855 19.8693 145.196 19.9912 145.652 20.0563C146.124 20.1376 146.709 20.1783 147.409 20.1783ZM147.36 12.1267C148.141 12.1267 148.726 11.9397 149.117 11.5655C149.507 11.1752 149.702 10.6709 149.702 10.0528C149.702 9.40219 149.499 8.86542 149.092 8.44251C148.702 8.0196 148.124 7.80814 147.36 7.80814C146.612 7.80814 146.026 8.0196 145.603 8.44251C145.18 8.84915 144.969 9.37779 144.969 10.0284C144.969 10.4351 145.058 10.8011 145.237 11.1264C145.432 11.4354 145.709 11.6794 146.067 11.8583C146.425 12.0373 146.856 12.1267 147.36 12.1267ZM162.312 18.8608C161.255 18.8608 160.311 18.7144 159.482 18.4216C158.668 18.1288 157.977 17.7059 157.408 17.1529C156.838 16.5998 156.399 15.9167 156.09 15.1034C155.797 14.2901 155.651 13.3711 155.651 12.3463C155.651 11.3378 155.789 10.4107 156.066 9.56485C156.359 8.70276 156.781 7.96267 157.334 7.34457C157.888 6.7102 158.563 6.22222 159.36 5.88064C160.157 5.53906 161.059 5.36827 162.068 5.36827C163.044 5.36827 163.914 5.53093 164.679 5.85624C165.443 6.16529 166.077 6.637 166.582 7.27137C167.102 7.90574 167.476 8.6865 167.704 9.61365C167.948 10.5245 168.037 11.5737 167.972 12.7611L157.92 12.8587V10.9312L165.947 10.858L164.703 11.8339C164.817 10.9718 164.76 10.2643 164.532 9.71124C164.304 9.15821 163.971 8.75156 163.532 8.49131C163.109 8.23105 162.637 8.10093 162.117 8.10093C161.499 8.10093 160.954 8.26359 160.482 8.5889C160.01 8.91422 159.644 9.39406 159.384 10.0284C159.124 10.6465 158.994 11.3948 158.994 12.2731C158.994 13.6557 159.295 14.6723 159.896 15.323C160.514 15.9736 161.32 16.2989 162.312 16.2989C162.767 16.2989 163.15 16.242 163.459 16.1281C163.784 15.998 164.044 15.8353 164.239 15.6401C164.451 15.4449 164.613 15.2254 164.727 14.9814C164.857 14.7374 164.963 14.4934 165.044 14.2494L168.094 14.9082C167.948 15.51 167.728 16.0549 167.436 16.5429C167.159 17.0146 166.785 17.4294 166.313 17.7872C165.842 18.1288 165.272 18.3891 164.605 18.568C163.955 18.7632 163.19 18.8608 162.312 18.8608ZM175.802 18.8608C174.94 18.8608 174.159 18.7794 173.46 18.6168C172.761 18.4541 172.159 18.2183 171.654 17.9092C171.15 17.6002 170.744 17.2342 170.435 16.8113C170.125 16.3721 169.922 15.8841 169.825 15.3474L172.508 14.2494C172.573 14.6073 172.752 14.9407 173.045 15.2498C173.338 15.5588 173.728 15.8109 174.216 16.0061C174.721 16.185 175.322 16.2745 176.022 16.2745C176.77 16.2745 177.347 16.1688 177.754 15.9573C178.161 15.7296 178.364 15.4124 178.364 15.0058C178.364 14.6967 178.25 14.4527 178.023 14.2738C177.795 14.0949 177.461 13.9404 177.022 13.8102C176.583 13.6801 176.054 13.5581 175.436 13.4443C174.834 13.2979 174.216 13.1433 173.582 12.9807C172.964 12.818 172.386 12.5903 171.85 12.2975C171.329 12.0047 170.898 11.6225 170.557 11.1508C170.231 10.6628 170.069 10.0447 170.069 9.29646C170.069 8.51571 170.28 7.83254 170.703 7.24697C171.126 6.6614 171.744 6.20596 172.557 5.88064C173.371 5.53906 174.363 5.36827 175.534 5.36827C176.591 5.36827 177.518 5.51466 178.315 5.80745C179.112 6.08396 179.763 6.49061 180.267 7.02738C180.788 7.54789 181.137 8.17412 181.316 8.90608L178.462 9.85764C178.397 9.46726 178.234 9.12567 177.974 8.83289C177.73 8.5401 177.396 8.32052 176.973 8.17412C176.567 8.02773 176.087 7.95453 175.534 7.95453C174.834 7.95453 174.29 8.06839 173.899 8.29612C173.525 8.52384 173.338 8.82476 173.338 9.19887C173.338 9.50792 173.46 9.76004 173.704 9.95523C173.964 10.1504 174.322 10.3131 174.777 10.4432C175.233 10.5571 175.77 10.6791 176.388 10.8092C177.038 10.9393 177.673 11.0938 178.291 11.2728C178.909 11.4354 179.462 11.655 179.95 11.9315C180.454 12.208 180.853 12.574 181.146 13.0295C181.438 13.4849 181.585 14.0705 181.585 14.7862C181.585 15.632 181.357 16.364 180.902 16.9821C180.446 17.5839 179.787 18.0475 178.925 18.3728C178.063 18.6981 177.022 18.8608 175.802 18.8608ZM183.998 18.5192V10.4676V1.07409H187.536V5.07548C187.536 5.4008 187.519 5.74238 187.487 6.10023C187.47 6.45808 187.43 6.82406 187.365 7.19817C187.316 7.55602 187.259 7.922 187.194 8.29612C187.145 8.67023 187.088 9.04434 187.023 9.41846H187.56C187.788 8.5889 188.072 7.87321 188.414 7.27137C188.772 6.66953 189.227 6.20596 189.78 5.88064C190.333 5.53906 191.033 5.36827 191.879 5.36827C193.375 5.36827 194.497 5.89691 195.246 6.95419C195.994 7.9952 196.368 9.59738 196.368 11.7607V18.5192H192.83V12.2975C192.83 10.9312 192.627 9.9227 192.22 9.27207C191.83 8.60517 191.236 8.27172 190.439 8.27172C189.788 8.27172 189.252 8.46691 188.829 8.85729C188.406 9.24767 188.089 9.77631 187.877 10.4432C187.666 11.0938 187.544 11.8258 187.511 12.6391V18.5192H183.998ZM201.127 18.5192L197.955 5.70985H201.615L203.42 15.7377H203.884L206.031 5.70985H210.252L212.472 15.7377H212.936L214.692 5.70985H218.279L215.083 18.5192H210.252L208.251 8.5645H207.836L205.933 18.5192H201.127ZM223.12 18.8608C222.405 18.8608 221.77 18.7225 221.217 18.446C220.664 18.1532 220.233 17.7384 219.924 17.2017C219.615 16.6649 219.461 15.998 219.461 15.201C219.461 14.5015 219.591 13.916 219.851 13.4443C220.127 12.9725 220.526 12.5903 221.046 12.2975C221.567 12.0047 222.209 11.7607 222.974 11.5655C223.738 11.3704 224.609 11.1996 225.585 11.0532C226.105 10.9718 226.528 10.8986 226.853 10.8336C227.195 10.7523 227.447 10.6303 227.61 10.4676C227.772 10.2887 227.854 10.0366 227.854 9.71124C227.854 9.2558 227.691 8.86542 227.366 8.5401C227.04 8.21479 226.528 8.05213 225.829 8.05213C225.357 8.05213 224.918 8.13346 224.511 8.29612C224.121 8.45877 223.779 8.70276 223.486 9.02808C223.21 9.3534 223.006 9.76817 222.876 10.2724L219.778 9.32086C219.973 8.65397 220.249 8.07653 220.607 7.58855C220.981 7.10058 221.429 6.69393 221.949 6.36862C222.47 6.02703 223.063 5.77491 223.73 5.61226C224.397 5.4496 225.121 5.36827 225.902 5.36827C227.154 5.36827 228.171 5.57159 228.952 5.97824C229.749 6.36862 230.342 6.98672 230.733 7.83254C231.123 8.6621 231.318 9.73564 231.318 11.0532V13.2491C231.318 13.8184 231.326 14.3958 231.343 14.9814C231.375 15.5669 231.408 16.1606 231.44 16.7625C231.489 17.348 231.538 17.9336 231.587 18.5192H228.488C228.423 18.1125 228.358 17.649 228.293 17.1285C228.244 16.5917 228.203 16.0549 228.171 15.5181H227.732C227.504 16.1362 227.179 16.6974 226.756 17.2017C226.333 17.7059 225.812 18.1125 225.194 18.4216C224.592 18.7144 223.901 18.8608 223.12 18.8608ZM224.609 16.3233C224.918 16.3233 225.227 16.2664 225.536 16.1525C225.861 16.0386 226.17 15.8841 226.463 15.6889C226.772 15.4775 227.049 15.2172 227.293 14.9082C227.553 14.5991 227.764 14.2494 227.927 13.859L227.878 11.8095L228.439 11.9315C228.146 12.143 227.805 12.3138 227.415 12.4439C227.024 12.5578 226.618 12.6472 226.195 12.7123C225.788 12.7774 225.381 12.8505 224.975 12.9319C224.568 13.0132 224.202 13.1189 223.877 13.2491C223.568 13.3792 223.316 13.5581 223.12 13.7858C222.941 13.9973 222.852 14.2982 222.852 14.6886C222.852 15.1928 223.015 15.5913 223.34 15.8841C223.665 16.1769 224.088 16.3233 224.609 16.3233ZM234.392 18.5192V12.3219V5.70985H237.295L237.319 10.0772H237.783C237.913 8.98741 238.133 8.10093 238.442 7.41776C238.767 6.7346 239.214 6.23036 239.784 5.90504C240.353 5.57972 241.061 5.41707 241.906 5.41707C242.053 5.41707 242.207 5.4252 242.37 5.44146C242.549 5.44146 242.752 5.46586 242.98 5.51466L242.834 9.24767C242.59 9.13381 242.321 9.05248 242.028 9.00368C241.736 8.95488 241.475 8.93048 241.248 8.93048C240.613 8.93048 240.068 9.07688 239.613 9.36966C239.158 9.66245 238.783 10.0854 238.491 10.6384C238.214 11.1752 238.027 11.8339 237.929 12.6147V18.5192H234.392ZM120.482 45.8364C119.294 45.8364 118.229 45.6574 117.285 45.2996C116.342 44.9418 115.545 44.4212 114.894 43.7381C114.244 43.0386 113.748 42.1847 113.406 41.1762C113.065 40.1515 112.894 38.9803 112.894 37.6628C112.894 36.329 113.065 35.1335 113.406 34.0762C113.764 33.0189 114.268 32.1243 114.919 31.3923C115.569 30.6441 116.35 30.0748 117.261 29.6844C118.172 29.294 119.189 29.0988 120.311 29.0988C121.173 29.0988 121.97 29.2208 122.702 29.4648C123.434 29.6925 124.068 30.026 124.605 30.4652C125.142 30.9043 125.557 31.4411 125.849 32.0755C126.159 32.7099 126.321 33.4255 126.337 34.2226L123.824 34.8569C123.841 34.0762 123.678 33.4337 123.336 32.9294C123.011 32.4089 122.572 32.0186 122.019 31.7583C121.466 31.498 120.872 31.3679 120.238 31.3679C119.652 31.3679 119.083 31.4818 118.53 31.7095C117.977 31.9372 117.481 32.3032 117.042 32.8074C116.619 33.2954 116.277 33.9298 116.017 34.7105C115.773 35.4913 115.651 36.4347 115.651 37.5408C115.651 38.9559 115.854 40.1108 116.261 41.0054C116.684 41.8838 117.261 42.5344 117.993 42.9573C118.741 43.364 119.595 43.5673 120.555 43.5673C121.515 43.5673 122.279 43.3802 122.848 43.0061C123.418 42.632 123.832 42.1359 124.093 41.5178C124.369 40.8834 124.524 40.1677 124.556 39.3707L126.923 39.7855C126.907 40.615 126.777 41.4039 126.533 42.1522C126.289 42.8841 125.906 43.5266 125.386 44.0797C124.882 44.6327 124.223 45.0637 123.41 45.3728C122.596 45.6818 121.62 45.8364 120.482 45.8364ZM135.192 45.8364C133.972 45.8364 132.891 45.5761 131.947 45.0556C131.004 44.5351 130.264 43.7787 129.727 42.7865C129.206 41.7943 128.946 40.5744 128.946 39.1267C128.946 37.6465 129.223 36.4185 129.776 35.4425C130.329 34.4666 131.069 33.7346 131.996 33.2466C132.939 32.7586 133.997 32.5147 135.168 32.5147C136.372 32.5147 137.445 32.7668 138.388 33.271C139.332 33.7753 140.072 34.5235 140.609 35.5157C141.162 36.5079 141.438 37.7441 141.438 39.2243C141.438 40.6882 141.162 41.9163 140.609 42.9085C140.072 43.8845 139.332 44.6164 138.388 45.1044C137.445 45.5924 136.38 45.8364 135.192 45.8364ZM135.29 43.7381C136.022 43.7381 136.648 43.5673 137.169 43.2257C137.689 42.8841 138.088 42.3799 138.364 41.713C138.641 41.0461 138.779 40.2491 138.779 39.3219C138.779 38.3622 138.632 37.5408 138.34 36.8576C138.047 36.1582 137.624 35.6214 137.071 35.2473C136.534 34.8732 135.875 34.6861 135.095 34.6861C134.395 34.6861 133.777 34.8569 133.24 35.1985C132.72 35.5238 132.321 36.0199 132.045 36.6868C131.768 37.3375 131.63 38.1345 131.63 39.0779C131.63 40.5581 131.955 41.7049 132.606 42.5181C133.257 43.3314 134.151 43.7381 135.29 43.7381ZM144.379 45.5192V37.7116V32.8318H146.672L146.526 36.7844H146.941C147.168 35.8085 147.469 35.0115 147.843 34.3934C148.234 33.759 148.722 33.2873 149.307 32.9782C149.909 32.6692 150.609 32.5147 151.406 32.5147C152.821 32.5147 153.894 33.0189 154.626 34.0274C155.374 35.0359 155.749 36.573 155.749 38.6387V45.5192H153.065V38.9071C153.065 37.492 152.853 36.4591 152.43 35.8085C152.007 35.1416 151.373 34.8081 150.527 34.8081C149.795 34.8081 149.169 35.044 148.649 35.5157C148.144 35.9711 147.754 36.573 147.477 37.3212C147.201 38.0694 147.046 38.8827 147.014 39.7611V45.5192H144.379ZM163.396 45.7876C162.143 45.7876 161.208 45.446 160.59 44.7628C159.988 44.0797 159.687 43.0305 159.687 41.6154V35.0033H157.808L157.857 32.8318H159.077C159.5 32.8318 159.817 32.7668 160.029 32.6367C160.24 32.4903 160.37 32.2381 160.419 31.8803L160.663 30.0016H162.249V32.8318H165.738V35.0521H162.249V41.5422C162.249 42.1766 162.395 42.632 162.688 42.9085C162.981 43.185 163.412 43.3233 163.981 43.3233C164.29 43.3233 164.599 43.2908 164.908 43.2257C165.234 43.1444 165.543 42.998 165.836 42.7865V45.3484C165.348 45.5111 164.9 45.6249 164.494 45.69C164.087 45.755 163.721 45.7876 163.396 45.7876ZM168.468 45.5192V38.9071V32.8318H170.761L170.639 37.2236H171.054C171.2 36.2314 171.428 35.3856 171.737 34.6861C172.046 33.9867 172.469 33.4581 173.006 33.1002C173.543 32.7261 174.21 32.5391 175.007 32.5391C175.169 32.5391 175.348 32.5472 175.543 32.5635C175.739 32.5797 175.958 32.6285 176.202 32.7099L176.08 35.4913C175.836 35.3937 175.584 35.3286 175.324 35.2961C175.064 35.2473 174.828 35.2229 174.616 35.2229C173.966 35.2229 173.413 35.41 172.957 35.7841C172.502 36.1419 172.119 36.6462 171.81 37.2968C171.518 37.9312 171.29 38.6713 171.127 39.5171V45.5192H168.468ZM183.894 45.8364C182.674 45.8364 181.593 45.5761 180.649 45.0556C179.706 44.5351 178.966 43.7787 178.429 42.7865C177.909 41.7943 177.648 40.5744 177.648 39.1267C177.648 37.6465 177.925 36.4185 178.478 35.4425C179.031 34.4666 179.771 33.7346 180.698 33.2466C181.642 32.7586 182.699 32.5147 183.87 32.5147C185.074 32.5147 186.147 32.7668 187.091 33.271C188.034 33.7753 188.774 34.5235 189.311 35.5157C189.864 36.5079 190.141 37.7441 190.141 39.2243C190.141 40.6882 189.864 41.9163 189.311 42.9085C188.774 43.8845 188.034 44.6164 187.091 45.1044C186.147 45.5924 185.082 45.8364 183.894 45.8364ZM183.992 43.7381C184.724 43.7381 185.35 43.5673 185.871 43.2257C186.391 42.8841 186.79 42.3799 187.066 41.713C187.343 41.0461 187.481 40.2491 187.481 39.3219C187.481 38.3622 187.335 37.5408 187.042 36.8576C186.749 36.1582 186.326 35.6214 185.773 35.2473C185.236 34.8732 184.578 34.6861 183.797 34.6861C183.097 34.6861 182.479 34.8569 181.943 35.1985C181.422 35.5238 181.024 36.0199 180.747 36.6868C180.47 37.3375 180.332 38.1345 180.332 39.0779C180.332 40.5581 180.658 41.7049 181.308 42.5181C181.959 43.3314 182.853 43.7381 183.992 43.7381ZM193.081 45.5192V28.3181H195.692V45.5192H193.081ZM204.178 45.8364C203.3 45.8364 202.519 45.7469 201.836 45.568C201.153 45.3891 200.567 45.1369 200.079 44.8116C199.608 44.47 199.242 44.0634 198.981 43.5917C198.721 43.12 198.567 42.6076 198.518 42.0546L200.665 41.347C200.665 41.8187 200.811 42.2416 201.104 42.6157C201.397 42.9899 201.812 43.2826 202.348 43.4941C202.901 43.6893 203.56 43.7869 204.325 43.7869C205.219 43.7869 205.911 43.6405 206.399 43.3477C206.887 43.0549 207.131 42.6483 207.131 42.1278C207.131 41.7374 206.992 41.4283 206.716 41.2006C206.456 40.9729 206.073 40.7858 205.569 40.6394C205.081 40.493 204.504 40.3548 203.837 40.2247C203.235 40.0945 202.633 39.9481 202.031 39.7855C201.446 39.6066 200.901 39.3788 200.397 39.1023C199.909 38.8258 199.51 38.468 199.201 38.0288C198.908 37.5733 198.762 37.004 198.762 36.3209C198.762 35.5401 198.965 34.8732 199.372 34.3202C199.778 33.7509 200.364 33.3117 201.129 33.0026C201.909 32.6773 202.836 32.5147 203.91 32.5147C204.951 32.5147 205.846 32.6692 206.594 32.9782C207.358 33.2873 207.968 33.7183 208.424 34.2714C208.879 34.8244 209.156 35.475 209.253 36.2233L207.009 36.882C206.976 36.3778 206.822 35.9549 206.545 35.6133C206.285 35.2717 205.927 35.0196 205.471 34.8569C205.016 34.678 204.479 34.5886 203.861 34.5886C203.048 34.5886 202.405 34.7349 201.934 35.0277C201.478 35.3205 201.251 35.719 201.251 36.2233C201.251 36.6136 201.389 36.9308 201.665 37.1748C201.958 37.4025 202.348 37.5896 202.836 37.736C203.341 37.8661 203.91 37.9962 204.544 38.1264C205.195 38.2565 205.821 38.4029 206.423 38.5655C207.025 38.7282 207.562 38.9478 208.033 39.2243C208.521 39.4846 208.904 39.8424 209.18 40.2979C209.473 40.737 209.619 41.2982 209.619 41.9814C209.619 42.8109 209.392 43.5185 208.936 44.1041C208.497 44.6734 207.871 45.1044 207.057 45.3972C206.244 45.69 205.284 45.8364 204.178 45.8364Z" fill="white"/>
</svg>
